<svg width="1075" height="215" viewBox="0 0 1075 215" fill="none" xmlns="http://www.w3.org/2000/svg">
<mask id="path-1-inside-1_167_843" fill="white">
<path d="M1075 214.356C1027.61 150.358 951.803 96.1594 856.547 58.1719C761.291 20.1844 650.573 -0.00228448 537.489 1.9383e-07C424.405 0.00228487 313.688 20.1934 218.437 58.1847C123.185 96.1761 47.3834 150.378 7.63446e-06 214.378L1.69956 214.867C48.9331 151.069 124.495 97.0387 219.445 59.1675C314.396 21.2963 424.763 1.16898 537.489 1.1667C650.215 1.16442 760.584 21.2872 855.538 59.1546C950.493 97.022 1026.06 151.049 1073.3 214.845L1075 214.356Z"/>
</mask>
<path d="M1075 214.356C1027.61 150.358 951.803 96.1594 856.547 58.1719C761.291 20.1844 650.573 -0.00228448 537.489 1.9383e-07C424.405 0.00228487 313.688 20.1934 218.437 58.1847C123.185 96.1761 47.3834 150.378 7.63446e-06 214.378L1.69956 214.867C48.9331 151.069 124.495 97.0387 219.445 59.1675C314.396 21.2963 424.763 1.16898 537.489 1.1667C650.215 1.16442 760.584 21.2872 855.538 59.1546C950.493 97.022 1026.06 151.049 1073.3 214.845L1075 214.356Z" stroke="url(#paint0_linear_167_843)" stroke-width="1.99861" mask="url(#path-1-inside-1_167_843)"/>
<defs>
<linearGradient id="paint0_linear_167_843" x1="494.725" y1="161.086" x2="494.725" y2="-4.36869" gradientUnits="userSpaceOnUse">
<stop stop-color="#E1B74B" stop-opacity="0"/>
<stop offset="0.209061" stop-color="#E1B74B"/>
<stop offset="0.380115" stop-color="#E84163"/>
<stop offset="0.615269" stop-color="#A604FF"/>
<stop offset="0.836285" stop-color="#6400FF"/>
<stop offset="1" stop-color="#3E08E0"/>
</linearGradient>
</defs>
</svg>
