<svg width="20" height="20" viewBox="0 0 20 20" fill="none" xmlns="http://www.w3.org/2000/svg">
<path d="M18 17.9996V12.1396C18 9.25957 17.38 7.05957 14.02 7.05957C12.4 7.05957 11.32 7.93957 10.88 8.77957H10.84V7.31957H7.66003V17.9996H10.98V12.6996C10.98 11.2996 11.24 9.95957 12.96 9.95957C14.66 9.95957 14.68 11.5396 14.68 12.7796V17.9796H18V17.9996Z" fill="white"/>
<path d="M2.26172 7.32031H5.58172V18.0003H2.26172V7.32031Z" fill="white"/>
<path d="M3.92 2C2.86 2 2 2.86 2 3.92C2 4.98 2.86 5.86 3.92 5.86C4.98 5.86 5.84 4.98 5.84 3.92C5.84 2.86 4.98 2 3.92 2Z" fill="white"/>
</svg>
